grf
version=1
nRows=11
nColumns=37
inDegrees=no
endheader
time	ground_force_1_vx	ground_force_1_vy	ground_force_1_vz	ground_force_1_px	ground_force_1_py	ground_force_1_pz	ground_moment_1_mx	ground_moment_1_my	ground_moment_1_mz	ground_force_2_vx	ground_force_2_vy	ground_force_2_vz	ground_force_2_px	ground_force_2_py	ground_force_2_pz	ground_moment_2_mx	ground_moment_2_my	ground_moment_2_mz	ground_force_3_vx	ground_force_3_vy	ground_force_3_vz	ground_force_3_px	ground_force_3_py	ground_force_3_pz	ground_moment_3_mx	ground_moment_3_my	ground_moment_3_mz	ground_force_4_vx	ground_force_4_vy	ground_force_4_vz	ground_force_4_px	ground_force_4_py	ground_force_4_pz	ground_moment_4_mx	ground_moment_4_my	ground_moment_4_mz
      0.00000000	      0.00000000	     -0.00000000	      0.00000000	      0.00000000	      0.00000000	      0.00000000	      0.00000000	      0.00000000	      0.00000000	      2.69172716	     27.84555054	   -687.36126709	   -361.35791003	  -1060.31595554	      0.00000000	      0.00000000	      0.00000000	      9.26109226	     11.60049539	    -10.36753661	   -138.89062500	   -426.03951465	   -766.15892137	      0.00000000	      0.00000000	     -0.00000000	   -293.16899969	      0.00000000	     -0.00000000	      0.00000000	      0.00000000	      0.00000000	      0.00000000	      0.00000000	      0.00000000	      0.00000000
      0.01000000	      0.00000000	     -0.00000000	      0.00000000	      0.00000000	      0.00000000	      0.00000000	      0.00000000	      0.00000000	      0.00000000	      1.62431169	     26.63828278	   -670.48223877	   -360.47033435	  -1059.92715632	      0.00000000	     -0.00000000	     -0.00000000	   -228.39576105	     10.53828892	    -12.64821526	   -149.00488281	   -424.34682039	   -765.00807008	      0.00000000	      0.00000000	     -0.00000000	   -107.02371012	      0.00000000	     -0.00000000	      0.00000000	      0.00000000	      0.00000000	      0.00000000	      0.00000000	      0.00000000	      0.00000000
      0.02000000	      0.00000000	     -0.00000000	      0.00000000	      0.00000000	      0.00000000	      0.00000000	      0.00000000	      0.00000000	      0.00000000	      1.31957304	     25.63241959	   -650.36608887	   -360.34938781	  -1058.94482600	      0.00000000	      0.00000000	     -0.00000000	   -159.91318324	      9.92031721	    -15.91617862	   -159.27331543	   -421.65319625	   -764.86021498	      0.00000000	      0.00000000	     -0.00000000	   -126.38635160	      0.00000000	     -0.00000000	      0.00000000	      0.00000000	      0.00000000	      0.00000000	      0.00000000	      0.00000000	      0.00000000
      0.03000000	      0.00000000	     -0.00000000	      0.00000000	      0.00000000	      0.00000000	      0.00000000	      0.00000000	      0.00000000	      0.00000000	      1.05187953	     24.56674957	   -636.15087891	   -359.50085851	  -1060.18846180	      0.00000000	      0.00000000	     -0.00000000	   -218.10164886	     10.09461042	    -19.50075810	   -169.74688721	   -421.24546236	   -764.53413070	      0.00000000	      0.00000000	     -0.00000000	   -463.57267100	      0.00000000	     -0.00000000	      0.00000000	      0.00000000	      0.00000000	      0.00000000	      0.00000000	      0.00000000	      0.00000000
      0.04000000	      0.00000000	     -0.00000000	      0.00000000	      0.00000000	      0.00000000	      0.00000000	      0.00000000	      0.00000000	      0.00000000	      0.46477208	     24.05088806	   -618.06494141	   -358.61959856	  -1059.02572608	      0.00000000	      0.00000000	     -0.00000000	   -341.85208996	      9.76192082	    -23.08505716	   -185.31202698	   -418.48809309	   -760.54439531	      0.00000000	      0.00000000	     -0.00000000	   -190.14476548	      0.00000000	     -0.00000000	      0.00000000	      0.00000000	      0.00000000	      0.00000000	      0.00000000	      0.00000000	      0.00000000
      0.05000000	      0.00000000	     -0.00000000	      0.00000000	      0.00000000	      0.00000000	      0.00000000	      0.00000000	      0.00000000	      0.00000000	      0.25353211	     23.81190491	   -601.55834961	   -357.95378945	  -1058.96663451	      0.00000000	      0.00000000	     -0.00000000	   -179.60566080	     11.35497813	    -26.70206551	   -199.99087524	   -415.51329536	   -760.71252516	      0.00000000	     -0.00000000	     -0.00000000	   -483.23229406	      0.00000000	     -0.00000000	      0.00000000	      0.00000000	      0.00000000	      0.00000000	      0.00000000	      0.00000000	      0.00000000
      0.06000000	      0.00000000	     -0.00000000	      0.00000000	      0.00000000	      0.00000000	      0.00000000	      0.00000000	      0.00000000	      0.00000000	      0.13575202	     23.08477402	   -583.69677734	   -357.34904564	  -1060.03921078	      0.00000000	      0.00000000	     -0.00000000	   -226.16873254	     12.11615684	    -29.77862083	   -219.10366821	   -411.00774959	   -758.91476076	      0.00000000	      0.00000000	     -0.00000000	   -466.82059678	      0.00000000	     -0.00000000	      0.00000000	      0.00000000	      0.00000000	      0.00000000	      0.00000000	      0.00000000	      0.00000000
      0.07000000	      0.00000000	     -0.00000000	      0.00000000	      0.00000000	      0.00000000	      0.00000000	      0.00000000	      0.00000000	      0.00000000	      0.12168263	     22.96854973	   -562.08026123	   -356.94719899	  -1059.13673875	      0.00000000	      0.00000000	     -0.00000000	   -147.77028020	     12.78833391	    -32.53958242	   -238.63566589	   -406.56905059	   -758.16232326	      0.00000000	      0.00000000	     -0.00000000	   -513.21374510	      0.00000000	     -0.00000000	      0.00000000	      0.00000000	      0.00000000	      0.00000000	      0.00000000	      0.00000000	      0.00000000
      0.08000000	      0.00000000	     -0.00000000	      0.00000000	      0.00000000	      0.00000000	      0.00000000	      0.00000000	      0.00000000	      0.00000000	      0.02463937	     23.01460075	   -542.70971680	   -356.13699701	  -1059.78080955	      0.00000000	      0.00000000	     -0.00000000	   -104.40792452	     13.55400351	    -35.12838864	   -258.35250854	   -403.96381976	   -759.54075466	      0.00000000	      0.00000000	     -0.00000000	   -362.35623908	      0.00000000	     -0.00000000	      0.00000000	      0.00000000	      0.00000000	      0.00000000	      0.00000000	      0.00000000	      0.00000000
      0.09000000	      0.00000000	     -0.00000000	      0.00000000	      0.00000000	      0.00000000	      0.00000000	      0.00000000	      0.00000000	      0.00000000	      0.35684204	     22.88748169	   -517.93646240	   -355.84453688	  -1057.42601378	      0.00000000	      0.00000000	      0.00000000	    133.51449142	     16.01901670	    -38.69294116	   -282.29440308	   -398.52514656	   -757.61604086	      0.00000000	      0.00000000	     -0.00000000	   -652.66905675	      0.00000000	     -0.00000000	      0.00000000	      0.00000000	      0.00000000	      0.00000000	      0.00000000	      0.00000000	      0.00000000
      0.10000000	      0.00000000	     -0.00000000	      0.00000000	      0.00000000	      0.00000000	      0.00000000	      0.00000000	      0.00000000	      0.00000000	     -0.26763153	     21.99611664	   -500.85934448	   -355.46548458	  -1058.66496425	      0.00000000	      0.00000000	     -0.00000000	    -68.41190150	     17.06454481	    -42.09185940	   -303.91778564	   -395.09405881	   -758.78989021	      0.00000000	      0.00000000	      0.00000000	   -621.32494609	      0.00000000	     -0.00000000	      0.00000000	      0.00000000	      0.00000000	      0.00000000	      0.00000000	      0.00000000	      0.00000000
